<svg width="15" height="10" viewBox="0 0 15 10" fill="none" xmlns="http://www.w3.org/2000/svg">
<path d="M14.7647 5.4718L7.78199 9.9164C7.70075 9.96859 7.6075 9.99739 7.5119 9.99983C7.41629 10.0023 7.32179 9.97827 7.23815 9.93029C7.155 9.88145 7.08576 9.81079 7.03743 9.72544C6.9891 9.64009 6.96339 9.54307 6.96287 9.44416V1.54805L0.799333 5.4718C0.678519 5.5417 0.53628 5.56065 0.402285 5.52471C0.26829 5.48876 0.152885 5.40069 0.0801421 5.27887C0.00739898 5.15705 -0.0170653 5.01089 0.0118519 4.87086C0.0407691 4.73084 0.120835 4.60777 0.235349 4.52733L7.21801 0.0827243C7.29934 0.0308313 7.39259 0.00232144 7.48812 0.000135863C7.58366 -0.00204971 7.67803 0.022168 7.76151 0.0702909C7.84498 0.118414 7.91452 0.188699 7.96297 0.273897C8.01142 0.359095 8.03702 0.45612 8.03713 0.554963V8.45107L14.2007 4.52733C14.3215 4.45743 14.4637 4.43848 14.5977 4.47442C14.7317 4.51037 14.8471 4.59844 14.9199 4.72026C14.9926 4.84208 15.0171 4.98824 14.9881 5.12826C14.9592 5.26829 14.8792 5.39136 14.7647 5.4718Z" fill="black"/>
</svg>
