<svg width="15" height="10" viewBox="0 0 15 10" fill="none" xmlns="http://www.w3.org/2000/svg">
<path d="M14.9711 5.23384C13.4992 8.48005 12.2013 10 10.8699 10C9.19055 10 8.14684 7.68226 7.03622 5.23384C6.16646 3.29436 5.17628 1.10041 4.1794 1.10041C3.18252 1.10041 1.75076 3.68638 1.05496 5.23384C1.03044 5.30788 0.991033 5.37579 0.939298 5.43314C0.887562 5.49049 0.824657 5.536 0.754678 5.56671C0.6847 5.59742 0.609215 5.61263 0.533138 5.61136C0.45706 5.61009 0.382096 5.59237 0.313122 5.55935C0.244149 5.52633 0.182714 5.47874 0.132814 5.4197C0.0829151 5.36065 0.0456708 5.29146 0.0235052 5.21664C0.00133968 5.14182 -0.00525009 5.06303 0.00416473 4.98542C0.0135795 4.90781 0.038788 4.8331 0.0781493 4.76616C1.55005 1.51995 2.848 0 4.1794 0C5.8587 0 6.90241 2.31774 8.01303 4.76616C8.88279 6.70564 9.87297 8.89959 10.8699 8.89959C11.9671 8.89959 13.2985 6.31362 13.9943 4.76616C14.0634 4.64861 14.1724 4.56145 14.3002 4.52143C14.428 4.48141 14.5657 4.49136 14.6869 4.54935C14.808 4.60735 14.904 4.70931 14.9565 4.83565C15.009 4.96199 15.0142 5.1038 14.9711 5.23384Z" fill="black"/>
</svg>
