<svg width="15" height="10" viewBox="0 0 15 10" fill="none" xmlns="http://www.w3.org/2000/svg">
<path d="M15 5V9.375C15 9.54076 14.9436 9.69973 14.8431 9.81694C14.7426 9.93415 14.6064 10 14.4643 10H7.5C7.35792 10 7.22166 9.93415 7.12119 9.81694C7.02073 9.69973 6.96429 9.54076 6.96429 9.375V1.25H1.07143V5C1.07143 5.16576 1.01499 5.32473 0.914521 5.44194C0.814056 5.55915 0.677795 5.625 0.535714 5.625C0.393634 5.625 0.257373 5.55915 0.156907 5.44194C0.0564411 5.32473 0 5.16576 0 5V0.625C0 0.45924 0.0564411 0.300269 0.156907 0.183058C0.257373 0.0658481 0.393634 0 0.535714 0H7.5C7.64208 0 7.77834 0.0658481 7.87881 0.183058C7.97927 0.300269 8.03571 0.45924 8.03571 0.625V8.75H13.9286V5C13.9286 4.83424 13.985 4.67527 14.0855 4.55806C14.1859 4.44085 14.3222 4.375 14.4643 4.375C14.6064 4.375 14.7426 4.44085 14.8431 4.55806C14.9436 4.67527 15 4.83424 15 5Z" fill="black"/>
</svg>
