<svg width="15" height="10" viewBox="0 0 15 10" fill="none" xmlns="http://www.w3.org/2000/svg">
<path d="M14.8981 5.29387L11.4167 9.79574C11.3662 9.85912 11.3006 9.9106 11.225 9.94606C11.1494 9.98153 11.0661 10 10.9815 10C10.8969 10 10.8135 9.98153 10.738 9.94606C10.6624 9.9106 10.5968 9.85912 10.5463 9.79574L4.01852 1.35474L0.972221 5.29387C0.930898 5.34724 0.878722 5.39249 0.818675 5.42703C0.758627 5.46157 0.691882 5.48473 0.622251 5.49518C0.55262 5.50563 0.481467 5.50317 0.412855 5.48794C0.344242 5.47271 0.279513 5.44501 0.222363 5.40642C0.165214 5.36783 0.116764 5.3191 0.0797782 5.26302C0.0427928 5.20694 0.0179969 5.14461 0.00680629 5.07958C-0.0157943 4.94825 0.0183941 4.81392 0.10185 4.70613L3.58333 0.204259C3.63379 0.140881 3.69943 0.0894027 3.77499 0.0539367C3.85055 0.0184707 3.93395 0 4.01852 0C4.10309 0 4.18648 0.0184707 4.26205 0.0539367C4.33761 0.0894027 4.40324 0.140881 4.4537 0.204259L10.9815 8.64526L14.0278 4.70613C14.1112 4.59834 14.2371 4.52593 14.3777 4.50482C14.5184 4.48371 14.6622 4.51564 14.7776 4.59358C14.8931 4.67152 14.9706 4.78909 14.9932 4.92042C15.0158 5.05175 14.9816 5.18608 14.8981 5.29387Z" fill="black"/>
</svg>
